<?xml version="1.0" encoding="UTF-8"?>
<svg width="40px" height="40px" viewBox="0 0 40 40" version="1.1" xmlns="http://www.w3.org/2000/svg" xmlns:xlink="http://www.w3.org/1999/xlink">
    <!-- Generator: sketchtool 54.1 (76490) - https://sketchapp.com -->
    <title>3E19FF9E-C096-4A01-85A7-81EA0AED6D62</title>
    <desc>Created with sketchtool.</desc>
    <g id="VD-Final" stroke="none" stroke-width="1" fill="none" fill-rule="evenodd">
        <g id="HC-/-HP-/-01_1" transform="translate(-933.000000, -451.000000)">
            <g id="Contents" transform="translate(248.000000, 451.000000)">
                <g id="04-Large-Icons-/-Ticket" transform="translate(685.000000, 0.000000)">
                    <g id="ico-globe">
                        <path d="M19.9979478,39.7139826 C9.06577391,39.7139826 0.17186087,30.8200696 0.17186087,19.8878957 C0.17186087,8.95572174 9.06577391,0.0618086957 19.9979478,0.0618086957 C30.9301217,0.0618086957 39.8240348,8.95572174 39.8240348,19.8878957 C39.8240348,30.8200696 30.9301217,39.7139826 19.9979478,39.7139826 Z M34.6066435,19.8878957 L34.6066435,17.801287 L32.519687,15.7139826 L30.4327304,15.7139826 L30.4327304,17.8009391 C30.4327304,18.9536348 29.4984696,19.8878957 28.3457739,19.8878957 L25.7600348,19.8878957 L24.5374261,17.525113 C24.2682087,17.0183304 23.6330783,16.8238957 23.1256,17.0938087 C22.6188174,17.3633739 22.4254261,17.9978087 22.6942957,18.5045913 L24.5189913,21.9748522 L28.3822957,21.9748522 L28.3572522,22.0005913 L24.1718609,26.1487652 L24.1718609,30.3226783 C24.1718609,31.4753739 23.2376,32.4096348 22.0849043,32.4096348 L19.9979478,32.4096348 L15.8240348,24.5494609 L15.8240348,23.2621565 C15.8240348,22.5508522 15.2793391,21.9748522 14.6066435,21.9748522 L13.3892522,21.9748522 C11.6602087,21.9748522 10.2643826,20.5706783 10.271687,18.8374609 C10.2793391,17.105287 10.2845565,15.701113 10.2845565,15.701113 L12.3457739,13.6270261 L16.519687,13.6270261 L17.7022957,15.7139826 L22.0849043,15.7139826 L22.1012522,13.6270261 L20.9906435,11.5400696 L13.7370783,11.5400696 L15.8240348,9.45311304 C15.8240348,8.30041739 16.7582957,7.36615652 17.9109913,7.36615652 L19.9979478,7.36615652 L22.0849043,5.2792 L26.2588174,5.2792 L26.8626435,4.67537391 C24.7673391,3.72546087 22.4442087,3.19224348 19.9979478,3.19224348 C18.2887304,3.19224348 16.6393391,3.45137391 15.0856,3.93067826 L9.56316522,9.45311304 L6.99725217,9.4298087 C5.07690435,11.8120696 3.79829565,14.7303304 3.42194783,17.9216348 L5.3722087,19.8878957 L5.3722087,21.9727652 L7.4762087,24.0618087 L7.49464348,30.9345043 C10.5558609,34.3953739 15.0250783,36.5835478 19.9979478,36.5835478 C28.4988174,36.5835478 35.531513,30.1950261 36.5593391,21.9678957 C35.4692522,21.8986783 34.6066435,20.9953739 34.6066435,19.8878957 Z" id="Combined-Shape" fill="#253064" fill-rule="nonzero"></path>
                        <path d="M21.9456348,7.36615652 C21.9456348,8.44233043 21.0739826,9.31398261 19.9978087,9.31398261 C18.9219826,9.31398261 18.0503304,8.44233043 18.0503304,7.36615652 C18.0503304,6.28998261 18.9219826,5.41833043 19.9978087,5.41833043 C21.0739826,5.41833043 21.9456348,6.28998261 21.9456348,7.36615652" id="Fill-142" fill="#EF6C6E"></path>
                    </g>
                </g>
            </g>
        </g>
    </g>
</svg>