<?xml version="1.0" encoding="UTF-8"?>
<svg width="40px" height="40px" viewBox="0 0 40 40" version="1.1" xmlns="http://www.w3.org/2000/svg" xmlns:xlink="http://www.w3.org/1999/xlink">
    <!-- Generator: sketchtool 54.1 (76490) - https://sketchapp.com -->
    <title>588054D8-1776-4DDA-95B8-369E36910797</title>
    <desc>Created with sketchtool.</desc>
    <g id="VD-Final" stroke="none" stroke-width="1" fill="none" fill-rule="evenodd">
        <g id="HC-/-HP-/-01_1" transform="translate(-248.000000, -451.000000)">
            <g id="Contents" transform="translate(248.000000, 451.000000)">
                <g id="04-Large-Icons-/-Ticket-Copy-2">
                    <g id="Group">
                        <path d="M9.75316814,36.1635752 L12.0490973,38.4587965 C13.7007788,40.1104779 16.4041416,40.1104779 18.056531,38.4595044 L32.5379469,23.9766726 L15.9326372,7.37136283 L1.45051327,21.8527788 C-0.201168142,23.5051681 -0.201168142,26.208531 1.45051327,27.8602124 L3.74573451,30.1561416 C5.40520354,28.4977345 8.0940531,28.4984425 9.75246018,30.1568496 C11.4112212,31.8156106 11.4119292,34.5044602 9.75316814,36.1635752 M38.5453805,11.9628673 L36.2501593,9.66658407 C34.5906903,11.3260531 31.9018407,11.3260531 30.2427257,9.66658407 C28.5832566,8.00746903 28.5832566,5.31861947 30.2427257,3.65950442 L27.9471504,1.3639292 C26.2947611,-0.288460177 23.5917522,-0.288460177 21.9393628,1.3639292 L17.4342301,5.86906195 L34.0402478,22.4750796 L38.5453805,17.9703009 C40.1977699,16.3179115 40.1977699,13.6145487 38.5453805,11.9628673" id="Fill-131" fill="#253064"></path>
                        <path d="M21.7519292,18.1568142 C22.5264425,18.9313274 22.5264425,20.1851327 21.7519292,20.959646 C20.9774159,21.7338053 19.7236106,21.7338053 18.9490973,20.959646 C18.1749381,20.1851327 18.1749381,18.9313274 18.9490973,18.1561062 C19.7236106,17.3819469 20.9774159,17.3819469 21.7519292,18.1568142" id="Fill-133" fill="#FFFFFF"></path>
                        <path d="M15.9623717,26.0702301 C15.9630796,27.1654513 15.075292,28.0532389 13.9800708,28.0532389 C12.8852035,28.0532389 11.9988319,27.1661593 11.9988319,26.0709381 C11.9981239,24.9757168 12.8859115,24.0886372 13.9807788,24.0886372 C15.076,24.0886372 15.9623717,24.9750088 15.9623717,26.0702301" id="Fill-132" fill="#EF6C6E"></path>
                    </g>
                </g>
            </g>
        </g>
    </g>
</svg>