<?xml version="1.0" encoding="UTF-8"?>
<svg width="40px" height="33px" viewBox="0 0 40 33" version="1.1" xmlns="http://www.w3.org/2000/svg" xmlns:xlink="http://www.w3.org/1999/xlink">
    <!-- Generator: sketchtool 54.1 (76490) - https://sketchapp.com -->
    <title>C7F17092-2FEA-4539-8F83-25D3108F0BDE</title>
    <desc>Created with sketchtool.</desc>
    <g id="VD-Final" stroke="none" stroke-width="1" fill="none" fill-rule="evenodd">
        <g id="HC-/-HP-/-01_1" transform="translate(-591.000000, -455.000000)">
            <g id="Contents" transform="translate(248.000000, 451.000000)">
                <g id="04-Large-Icons-/-Ticket-Copy" transform="translate(343.000000, 0.000000)">
                    <g id="Group-3" transform="translate(0.000000, 4.000000)">
                        <path d="M25.7100678,9.31215773 L25.6921017,9.32780722 C25.2971864,8.73720928 24.626,8.34597216 23.8680339,8.34597216 L16.1121017,8.34597216 C15.3276949,8.34597216 14.6382034,8.7657866 14.2493898,9.39040515 L3.17854237,22.1729722 L1.60125424,22.5676113 C0.510745763,22.8407969 -0.151288136,23.9478278 0.119559322,25.0426113 L0.365661017,26.0315907 L4.81718644,24.9184361 L4.83142373,24.9310237 L4.84905085,24.9106113 C4.85854237,24.8997247 13.9165085,14.4431474 13.9165085,14.4431474 L14.5158305,13.8317969 L15.6043051,22.6502814 C15.7426102,23.7688794 14.9436271,24.6758691 13.8205763,24.6758691 L8.68667797,24.6758691 C7.01210169,24.6891371 5.65718644,26.0540443 5.65718644,27.7384052 C5.65718644,29.2077557 6.68972881,30.4338588 8.06498305,30.7301784 L16.5019322,32.8408175 L26.0036271,32.8408175 L26.0036271,32.7659722 C26.0036271,30.1943536 24.0100678,28.7583433 21.9958305,28.7583433 L15.8941356,28.7583433 L15.8941356,26.7171062 L21.9958305,26.7171062 C24.9636271,26.7171062 27.4398983,28.8549619 27.9836271,31.6762918 L31.7910847,30.731199 C33.166678,30.4338588 34.1992203,29.2077557 34.1992203,27.7384052 C34.1992203,26.0540443 32.8443051,24.6891371 31.1697288,24.6775701 C31.1693898,24.6765495 28.2483729,24.6762093 26.1714237,24.6758691 C25.0483729,24.6758691 24.2514237,23.7692196 24.3921017,22.6506216 L25.5198983,13.6787041 L26.0636271,14.388034 L35.1690508,24.8997247 C35.1788814,24.9106113 35.1961695,24.9310237 35.1961695,24.9310237 L35.2104068,24.9184361 L39.6619322,26.0315907 L39.9083729,25.0426113 C40.1792203,23.9478278 39.5168475,22.8407969 38.426678,22.5676113 L36.8490508,22.1729722 L25.7100678,9.31215773 Z M19.9619322,6.30405464 C21.6470169,6.30405464 23.0127797,4.93404433 23.0127797,3.24287938 C23.0127797,1.55239485 21.6470169,0.182384536 19.9619322,0.182384536 C18.2768475,0.182384536 16.9110847,1.55239485 16.9110847,3.24287938 C16.9110847,4.93404433 18.2768475,6.30405464 19.9619322,6.30405464 L19.9619322,6.30405464 Z" id="Fill-5" fill="#253064"></path>
                        <path d="M22.0477966,15.4910165 C22.0477966,16.6184598 21.1372881,17.5322536 20.0138983,17.5322536 C18.8908475,17.5322536 17.98,16.6184598 17.98,15.4910165 C17.98,14.3645938 18.8908475,13.4511402 20.0138983,13.4511402 C21.1372881,13.4511402 22.0477966,14.3645938 22.0477966,15.4910165" id="Fill-197" fill="#EF6C6E"></path>
                    </g>
                </g>
            </g>
        </g>
    </g>
</svg>